<svg xmlns="http://www.w3.org/2000/svg" width="474" height="512.025" viewBox="0 0 474 512.025">
  <g id="Icon_5" data-name="Icon 5" transform="translate(-19 0.025)">
    <path id="Path_1" data-name="Path 1" d="M426.4,110.3A235.562,235.562,0,0,0,289.8,40.4l14.8-14.8A14.991,14.991,0,1,0,283.4,4.4l-38,38a14.908,14.908,0,0,0,0,21.2l38,38a14.968,14.968,0,0,0,21.2,0,14.908,14.908,0,0,0,0-21.2l-8.5-8.5A207.294,207.294,0,0,1,463,275c0,114.1-92.9,207-207,207S49,389.1,49,275A207.177,207.177,0,0,1,186.4,80a15.024,15.024,0,1,0-10.1-28.3,237.122,237.122,0,1,0,250.1,58.6Z" fill="#fff"/>
    <path id="Path_2" data-name="Path 2" d="M101.9,275c0,85,69.1,154.1,154.1,154.1S410.1,360,410.1,275,341,120.9,256,120.9,101.9,190,101.9,275Zm163.3,13.3c-21.6-7.6-34.1-13.6-43.2-20.8-11.2-8.8-16.3-23.9-13.3-39.5,3.2-16.9,15-30.4,30.8-35.1a6.369,6.369,0,0,1,.7-.2v-6a15,15,0,0,1,30,0v5.1a57.4,57.4,0,0,1,20.7,9.4,15,15,0,1,1-18,24c-3.2-2.4-11.9-7.5-24.8-3.6-7.6,2.3-9.5,9.7-10,12-.8,4.4.1,8.6,2.4,10.3,7.8,6.2,21.9,11.6,34.7,16.1,23.3,8.2,36.3,29.8,32.2,53.7a54.217,54.217,0,0,1-16.6,30.6A51.5,51.5,0,0,1,270.1,356v7.2a15,15,0,0,1-30,0v-5.7c-10-1.2-18.3-4.2-29.5-11.6a15.019,15.019,0,1,1,16.5-25.1c10.4,6.8,14.3,7.4,28,7.3a22.882,22.882,0,0,0,22.8-19.4c.7-4.4,1-15.5-12.7-20.4Z" fill="#fff"/>
  </g>
</svg>
