<?xml version="1.0" encoding="utf-8"?>
<!-- Generator: Adobe Illustrator 24.3.0, SVG Export Plug-In . SVG Version: 6.00 Build 0)  -->
<svg version="1.1" id="Layer_1" xmlns="http://www.w3.org/2000/svg" xmlns:xlink="http://www.w3.org/1999/xlink" x="0px" y="0px"
	 viewBox="0 0 512 512" style="enable-background:new 0 0 512 512;" xml:space="preserve">
<style type="text/css">
	.st0{fill:#4F80FF;}
</style>
<path class="st0" d="M512,264c0,59-48,107-107,107h-5v-40h5c36.9,0,67-30.1,67-67s-30.1-67-67-67h-28v-35c0-67.3-54.7-122-122-122
	c-62.8,0-115,47-121.4,109.4l-1.7,16.6l-16.6,1.3C73.1,170.7,40,206.6,40,249c0,41.8,31.5,76.4,72,81.4v40.2
	C49.4,365.5,0,312.9,0,249c0-30.9,11.6-60.3,32.5-82.9c17.2-18.5,39.4-31.1,63.7-36.3c6.8-33.6,24.2-64.3,49.9-87.7
	C176,14.9,214.6,0,255,0c87.9,0,159.6,70.3,161.9,157.7C470.3,163.6,512,209,512,264z M290,224c0-19.3-15.7-35-35-35s-35,15.7-35,35
	c0,11.9,5.9,22.4,15,28.7v195.6c-9.1,6.3-15,16.8-15,28.7c0,19.3,15.7,35,35,35s35-15.7,35-35c0-11.9-5.9-22.4-15-28.7V252.7
	C284.1,246.4,290,235.9,290,224z M166,249c-19.3,0-35,15.7-35,35c0,11.9,5.9,22.4,15,28.7V457h-44.3c-6.3-9.1-16.8-15-28.7-15
	c-19.3,0-35,15.7-35,35s15.7,35,35,35c11.9,0,22.4-5.9,28.7-15H186V312.7c9.1-6.3,15-16.8,15-28.7C201,264.7,185.3,249,166,249z
	 M439,442c-11.9,0-22.4,5.9-28.7,15H366V332.7c9.1-6.3,15-16.8,15-28.7c0-19.3-15.7-35-35-35s-35,15.7-35,35
	c0,11.9,5.9,22.4,15,28.7V497h84.3c6.3,9.1,16.8,15,28.7,15c19.3,0,35-15.7,35-35S458.3,442,439,442z"/>
</svg>
