<?xml version="1.0" encoding="utf-8"?>
<!-- Generator: Adobe Illustrator 24.3.0, SVG Export Plug-In . SVG Version: 6.00 Build 0)  -->
<svg version="1.1" id="Layer_1" xmlns="http://www.w3.org/2000/svg" xmlns:xlink="http://www.w3.org/1999/xlink" x="0px" y="0px"
	 viewBox="0 0 512 512" style="enable-background:new 0 0 512 512;" xml:space="preserve">
<style type="text/css">
	.st0{fill:#4F80FF;}
</style>
<path class="st0" d="M289.2,87v192.8c0,1.6,0.3,3.2,0.8,4.7l48.2,144.6c2,6.1,7.8,10.3,14.2,10.3h48.2c8.3,0,15-6.7,15-15V294.8H497
	c8.3,0,15-6.7,15-15V87c0-8.3-6.7-15-15-15H304.2C295.9,72,289.2,78.7,289.2,87z"/>
<path class="st0" d="M0,87l0,192.8c0,1.6,0.3,3.2,0.8,4.7L49,429.1c2,6.1,7.8,10.3,14.2,10.3h48.2c8.3,0,15-6.7,15-15V294.8h81.4
	c8.3,0,15-6.7,15-15V87c0-8.3-6.7-15-15-15H15C6.7,72,0,78.7,0,87z"/>
</svg>
