<?xml version="1.0" encoding="utf-8"?>
<!-- Generator: Adobe Illustrator 24.3.0, SVG Export Plug-In . SVG Version: 6.00 Build 0)  -->
<svg version="1.1" id="Layer_1" xmlns="http://www.w3.org/2000/svg" xmlns:xlink="http://www.w3.org/1999/xlink" x="0px" y="0px"
	 viewBox="0 0 512 512" style="enable-background:new 0 0 512 512;" xml:space="preserve">
<style type="text/css">
	.st0{fill-rule:evenodd;clip-rule:evenodd;fill:#4F80FF;}
</style>
<path class="st0" d="M307.7,465.2c0-17.7-14.3-32-32-32h-39.2c-8.5,0-16.6,3.4-22.7,9.4s-9.4,14.2-9.4,22.7c0,17.7,14.3,32,32,32
	h39.2C293.3,497.3,307.7,482.9,307.7,465.2L307.7,465.2z M67.4,382.6c5.4,0.4,11.8,0.6,18.3,0.3c3.5,17.6,12.1,33.9,24.9,46.7
	c17.1,17.1,40.2,26.6,64.3,26.6h12.2c-0.5,3-0.8,6-0.8,9c0,3.1,0.3,6.1,0.8,9h-12.2c-28.9,0-56.6-11.5-77-31.9
	C81.6,426,71,405.1,67.4,382.6L67.4,382.6z M58.2,363.5c-14.2-2.4-27.4-9.2-37.8-19.5C7.4,330.9,0,313.1,0,294.6v-42.5
	c0-18.5,7.4-36.3,20.4-49.4c13.1-13.1,30.8-20.4,49.4-20.4h4.6C81.9,88.5,160.3,14.7,256,14.7s174.1,73.8,181.5,167.5h4.6
	c18.5,0,36.3,7.4,49.4,20.4c13.1,13.1,20.4,30.8,20.4,49.4v42.5c0,18.5-7.4,36.3-20.4,49.4c-13.1,13.1-30.8,20.4-49.4,20.4h-20.6
	c-8.5,0-15.5-6.9-15.5-15.5V196.8c0-82.9-67.2-150.1-150.1-150.1s-150.1,67.2-150.1,150.1V349c0,6-3.5,11.3-8.5,13.8
	C83.5,367.6,62,364.1,58.2,363.5L58.2,363.5z"/>
</svg>
