<?xml version="1.0" encoding="utf-8"?>
<!-- Generator: Adobe Illustrator 24.3.0, SVG Export Plug-In . SVG Version: 6.00 Build 0)  -->
<svg version="1.1" id="Capa_1" xmlns="http://www.w3.org/2000/svg" xmlns:xlink="http://www.w3.org/1999/xlink" x="0px" y="0px"
	 viewBox="0 0 512 512" style="enable-background:new 0 0 512 512;" xml:space="preserve">
<style type="text/css">
	.st0{fill:#4F80FF;}
</style>
<g>
	<path class="st0" d="M256,0C144.9,0,54.6,90.4,54.6,201.4c0,62,28.2,117.6,72.4,154.6v129.8c0,18.6,18.8,31.2,36,24.3l93.1-37.4
		l93.1,37.4c17.2,6.9,36-5.8,36-24.3V356c44.2-37,72.4-92.5,72.4-154.6C457.4,90.4,367.1,0,256,0L256,0z M355.1,480.2l-89.3-35.9
		c-6.3-2.5-13.2-2.5-19.5,0l-89.3,35.9V376.8c61.4,34.8,136.8,34.8,198.1,0L355.1,480.2L355.1,480.2z M331.5,355.3
		c-113.2,55.8-247-27-247-153.9C84.5,106.9,161.5,30,256,30s171.5,76.9,171.5,171.5C427.5,268.5,388.6,327.2,331.5,355.3z"/>
	<path class="st0" d="M256,65.6c-74.9,0-135.8,60.9-135.8,135.8c0,55.1,33,102.6,80.2,123.9c89.3,40.2,191.4-25.4,191.4-123.9
		C391.8,126.5,330.9,65.6,256,65.6L256,65.6z M256,307.3c-58.4,0-105.8-47.5-105.8-105.8S197.6,95.6,256,95.6
		s105.8,47.5,105.8,105.8S314.4,307.3,256,307.3z"/>
	<path class="st0" d="M314.8,162.5l-22.9-9.4L276.8,135c-10.8-13-30.6-13-41.5-0.1l-15.4,18.2l-22.8,9.4
		c-15.8,6.5-21.6,25.9-12.1,40.1l12.7,18.9L199,246c0.9,17.6,18.1,29.5,34.8,24.5l22.1-6.7c24.1,7.2,25,7.8,30.1,7.8
		c14,0,26.3-11,27-25.9l1.1-24.2l12.8-18.7C336.5,188.6,330.7,169,314.8,162.5L314.8,162.5z M283.2,240.7c-31.1-9.3-23.6-9.3-54.4,0
		c-1.8-33.1,1-25.1-16.8-51.8c30.3-12.5,22.9-6.9,44-32c20.4,24.5,13,19.3,44,32C282.3,215,284.7,207.2,283.2,240.7z"/>
</g>
</svg>
