<?xml version="1.0" encoding="utf-8"?>
<!-- Generator: Adobe Illustrator 24.3.0, SVG Export Plug-In . SVG Version: 6.00 Build 0)  -->
<svg version="1.1" id="Capa_1" xmlns="http://www.w3.org/2000/svg" xmlns:xlink="http://www.w3.org/1999/xlink" x="0px" y="0px"
	 viewBox="0 0 512 512" style="enable-background:new 0 0 512 512;" xml:space="preserve">
<style type="text/css">
	.st0{fill:#FFFFFF;}
	.st1{fill:#4F80FF;}
</style>
<g>
	<circle class="st0" cx="256" cy="256" r="236.2"/>
	<path class="st0" d="M256,512C114.9,512,0,397.2,0,256C0,114.9,114.9,0,256,0c141.2,0,256,114.9,256,256
		C512,397.2,397.2,512,256,512z M256,39.7c-119.3,0-216.3,97-216.3,216.3s97,216.3,216.3,216.3S472.3,375.3,472.3,256
		C472.3,136.7,375.3,39.7,256,39.7z"/>
</g>
<path class="st1" d="M225.1,350.2c-5.3,0-10.4-2.1-14.1-5.9l-73.2-74.4c-7.7-7.8-7.6-20.3,0.2-28c7.8-7.7,20.4-7.6,28,0.2l58.5,59.4
	l120.9-133.2c7.4-8.1,19.9-8.7,28-1.3c8.1,7.4,8.7,19.9,1.3,28l-135,148.7c-3.7,4-8.8,6.4-14.3,6.5
	C225.3,350.2,225.2,350.2,225.1,350.2z"/>
</svg>
