<?xml version="1.0" encoding="utf-8"?>
<!-- Generator: Adobe Illustrator 24.3.0, SVG Export Plug-In . SVG Version: 6.00 Build 0)  -->
<svg version="1.1" id="Layer_1" xmlns="http://www.w3.org/2000/svg" xmlns:xlink="http://www.w3.org/1999/xlink" x="0px" y="0px"
	 viewBox="0 0 512 512" style="enable-background:new 0 0 512 512;" xml:space="preserve">
<style type="text/css">
	.st0{fill:#4F80FF;}
</style>
<g>
	<g>
		<path class="st0" d="M232.4,306.9c-5,0-10.1-1.9-13.9-5.8c-7.7-7.7-7.7-20.2,0-27.8l127.6-127.6c7.7-7.7,20.2-7.7,27.8,0
			c7.7,7.7,7.7,20.2,0,27.8L246.4,301.2C242.5,305,237.5,306.9,232.4,306.9L232.4,306.9z"/>
	</g>
	<g>
		<path class="st0" d="M232.4,306.9c-5,0-10.1-1.9-13.9-5.8l-64.3-64.3c-7.7-7.7-7.7-20.2,0-27.8c7.7-7.7,20.2-7.7,27.8,0l64.3,64.3
			c7.7,7.7,7.7,20.2,0,27.8C242.5,305,237.5,306.9,232.4,306.9z"/>
	</g>
	<g>
		<path class="st0" d="M256,512c-2,0-4.1-0.3-6.2-1C124,469.5,39.4,352.5,39.4,220c0-10.9,8.8-19.7,19.7-19.7s19.7,8.8,19.7,19.7
			c0,115.5,73.7,217.4,183.4,253.6c10.3,3.4,15.9,14.5,12.5,24.9C272,506.8,264.3,512,256,512L256,512z"/>
	</g>
	<g>
		<path class="st0" d="M59.1,239.7c-10.9,0-19.7-8.8-19.7-19.7V80.7c0-10.9,8.8-19.7,19.7-19.7s19.7,8.8,19.7,19.7V220
			C78.8,230.9,69.9,239.7,59.1,239.7z"/>
	</g>
	<g>
		<path class="st0" d="M59.1,100.4c-9.7,0-18.1-7.1-19.5-17c-1.5-10.8,6-20.7,16.8-22.2C122.9,51.9,187.1,32,247.2,2.1
			c9.7-4.8,21.6-0.9,26.4,8.8c4.9,9.7,0.9,21.6-8.8,26.4c-64,31.9-132.2,53-203,62.8C60.9,100.3,60,100.4,59.1,100.4L59.1,100.4z"/>
	</g>
	<g>
		<path class="st0" d="M256,512c-8.3,0-16-5.2-18.7-13.5c-3.4-10.3,2.2-21.5,12.5-24.9C359.5,437.4,433.2,335.5,433.2,220
			c0-10.9,8.8-19.7,19.7-19.7s19.7,8.8,19.7,19.7c0,132.5-84.6,249.5-210.5,291C260.1,511.7,258,512,256,512z"/>
	</g>
	<g>
		<path class="st0" d="M452.9,239.7c-10.9,0-19.7-8.8-19.7-19.7V80.7c0-10.9,8.8-19.7,19.7-19.7s19.7,8.8,19.7,19.7V220
			C472.6,230.9,463.8,239.7,452.9,239.7z"/>
	</g>
	<g>
		<path class="st0" d="M452.9,100.4c-0.9,0-1.8-0.1-2.7-0.2c-70.8-9.8-139-31-203-62.8c-9.7-4.9-13.7-16.7-8.8-26.4
			c4.8-9.7,16.7-13.7,26.4-8.8c60.1,30,124.3,49.8,190.8,59.1c10.8,1.5,18.3,11.5,16.8,22.2C471.1,93.2,462.6,100.4,452.9,100.4
			L452.9,100.4z"/>
	</g>
</g>
</svg>
