<svg enable-background="new 0 0 512 512" viewBox="0 0 512 512" xmlns="http://www.w3.org/2000/svg"><g fill="#4f80ff"><path d="m473.7 212.6c-7.4-3.7-16.4-.7-20.1 6.7l-16.6 33.2-16.6-33.2c-5.5-11-21.3-11-26.8 0l-16.6 33.2-16.6-33.2c-6.2-12.4-25.4-10.5-28.9 3.1-3.3-13.4-21.7-15.6-28-3.1l-16.5 33.2-16.6-33.2c-5.5-11-21.3-11-26.8 0l-17 34-18.3-34.4c-6.5-12.1-24.5-9.8-27.8 3.5-3.4-13.6-22.7-15.5-28.9-3.1l-16.6 33.2-16.6-33.2c-5.6-11.1-21.4-10.9-26.8 0l-16.6 33.2-16.6-33.2c-3.7-7.4-12.7-10.4-20.1-6.7s-10.4 12.7-6.7 20.1l30 60c5.5 11 21.3 11 26.8 0l16.6-33.2 16.6 33.2c6.7 13.4 28.2 9.7 29.5-5.4 29.1-58.1 24-48.4 29.3-57.6.7 2.6-1.5-1.9 33.3 63.4 5.7 10.8 21.2 10.5 26.7-.4l16.6-33.2 16.6 33.2c5.5 11 21.3 11 26.8 0 32.3-64.7 30.5-60.7 31.1-63 5.3 9.2.3-.5 29.3 57.6 1.4 15.3 22.9 18.8 29.5 5.4l16.6-33.2 16.6 33.2c5.5 11 21.3 11 26.8 0l30-60c3.8-7.4.8-16.4-6.6-20.1z"/><path d="m467 151h-11c-37.7-71.5-112.9-120-199-120-84.4 0-162.2 46.8-201 120h-11c-24.8 0-45 20.2-45 45v120c0 24.8 20.2 45 45 45h11c38.8 73.2 116.6 120 201 120 86.2 0 161.3-48.5 199-120h11c24.8 0 45-20.2 45-45v-120c0-24.8-20.2-45-45-45zm-45.7 0h-44.7c-8.5-27.1-20.1-51-34.3-70.1 32 15.6 59.5 39.7 79 70.1zm-149.3-87.9c29.5 8.3 56.5 40.5 73.1 87.9h-73.1zm-30 0v87.9h-75c16.7-46.9 44.8-79.6 75-87.9zm-71.8 17.8c-14.3 18.9-26.3 42.6-34.9 70.1h-44.6c19.6-30.3 47.3-54.5 79.5-70.1zm-79.5 280.1h44.6c8.6 27.4 20.6 51.1 34.9 70.1-32.2-15.6-59.9-39.8-79.5-70.1zm151.3 87.9c-30.2-8.3-58.3-41.1-75-87.9h75zm30 0v-87.9h73.1c-16.6 47.4-43.6 79.6-73.1 87.9zm70.4-17.8c14.2-19.2 25.8-43 34.3-70.1h44.7c-19.6 30.4-47.1 54.5-79 70.1zm139.6-115.1c0 8.3-6.7 15-15 15h-422c-8.3 0-15-6.7-15-15v-120c0-8.3 6.7-15 15-15h422c8.3 0 15 6.7 15 15z"/></g></svg>