<?xml version="1.0" encoding="utf-8"?>
<!-- Generator: Adobe Illustrator 24.3.0, SVG Export Plug-In . SVG Version: 6.00 Build 0)  -->
<svg version="1.1" id="Capa_1" xmlns="http://www.w3.org/2000/svg" xmlns:xlink="http://www.w3.org/1999/xlink" x="0px" y="0px"
	 viewBox="0 0 512 512" style="enable-background:new 0 0 512 512;" xml:space="preserve">
<style type="text/css">
	.st0{fill:#4F80FF;}
</style>
<path class="st0" d="M391,256c0-17.6-3.4-34.4-9.5-49.8c-0.2-0.6-0.4-1.1-0.7-1.7c-20.3-49-68.6-83.5-124.8-83.5
	s-104.5,34.6-124.8,83.5c-0.3,0.5-0.5,1.1-0.7,1.7c-6.1,15.4-9.5,32.2-9.5,49.8s3.4,34.4,9.5,49.8c0.2,0.6,0.4,1.1,0.7,1.7
	c20.3,49,68.6,83.5,124.8,83.5s104.5-34.6,124.8-83.5c0.3-0.5,0.5-1.1,0.7-1.7C387.6,290.4,391,273.6,391,256z M256,361
	c-2.1,0-10-4.7-17.8-25.4c-2.2-6-4.2-12.6-5.8-19.6h47.2c-1.6,7-3.6,13.6-5.8,19.6C266,356.3,258.1,361,256,361L256,361z M227.5,286
	c-1-9.6-1.5-19.7-1.5-30c0-10.3,0.5-20.4,1.5-30h57c1,9.6,1.5,19.7,1.5,30c0,10.3-0.5,20.4-1.5,30H227.5z M151,256
	c0-10.4,1.5-20.5,4.4-30h42c-0.9,9.7-1.4,19.8-1.4,30c0,10.2,0.5,20.3,1.4,30h-42C152.5,276.5,151,266.4,151,256z M256,151
	c2.1,0,10,4.7,17.8,25.4c2.2,6,4.2,12.6,5.8,19.6h-47.2c1.6-7,3.6-13.6,5.8-19.6C246,155.7,253.9,151,256,151L256,151z M314.6,226
	h42c2.8,9.5,4.4,19.6,4.4,30c0,10.4-1.5,20.5-4.4,30h-42c0.9-9.7,1.4-19.8,1.4-30S315.5,235.7,314.6,226z M342.1,196h-31.8
	c-2.2-10.9-5-21.1-8.4-30.1c-0.7-1.9-1.4-3.6-2.1-5.3C316.8,168.4,331.4,180.7,342.1,196L342.1,196z M212.3,160.6
	c-0.7,1.7-1.4,3.5-2.1,5.3c-3.4,9.1-6.2,19.2-8.4,30.1h-31.8C180.6,180.7,195.2,168.4,212.3,160.6z M169.9,316h31.8
	c2.2,10.9,5,21,8.4,30.1c0.7,1.9,1.4,3.6,2.1,5.3C195.2,343.6,180.6,331.3,169.9,316z M299.7,351.4c0.7-1.7,1.4-3.5,2.1-5.3
	c3.4-9.1,6.2-19.2,8.4-30.1h31.8C331.4,331.3,316.8,343.6,299.7,351.4L299.7,351.4z"/>
<path class="st0" d="M477.7,212.3c-5.8-28.3-17.6-56.1-34.8-81.4c10.5-17.3,8.3-40.2-6.6-55.2c-14.9-14.9-37.9-17.2-55.2-6.6
	c-25.3-17.1-53.1-29-81.4-34.8C294.9,14.6,277.1,0,256,0s-38.9,14.6-43.7,34.3c-28.3,5.8-56.1,17.6-81.4,34.8
	c-17.3-10.5-40.2-8.3-55.2,6.6c-14.9,14.9-17.2,37.9-6.6,55.2c-17.1,25.3-29,53.1-34.8,81.4C14.6,217.1,0,234.9,0,256
	s14.6,38.9,34.3,43.7c5.8,28.3,17.6,56.1,34.7,81.4c-10.3,16.9-8.6,39.9,6.6,55.2c14.8,14.8,37.7,17.3,55.2,6.6
	c25.3,17.1,53.1,29,81.4,34.8c4.8,19.7,22.6,34.3,43.7,34.3s38.9-14.6,43.7-34.3c28.3-5.8,56.1-17.6,81.4-34.8
	c17.5,10.6,40.4,8.2,55.2-6.6c15.3-15.3,17-38.3,6.6-55.2c17.1-25.3,29-53.1,34.7-81.4c19.7-4.8,34.3-22.6,34.3-43.7
	S497.4,217.1,477.7,212.3z M372.7,372.7c-12.9,12.9-16.1,31.3-10.6,46.9c-20.5,13.5-42.8,23.1-65.4,28.1
	c-7.2-15.2-22.7-25.7-40.6-25.7s-33.4,10.5-40.6,25.7c-22.6-5-44.9-14.5-65.4-28.1c5.6-15.7,2.2-34.1-10.6-46.9
	c-12.7-12.7-31.1-16.2-46.9-10.6c-13.6-20.6-23.1-42.8-28.1-65.5C79.5,289.4,90,273.9,90,256s-10.5-33.4-25.7-40.6
	c5-22.7,14.5-44.9,28.1-65.5c16,5.7,34.3,2,46.9-10.6c12.7-12.7,16.2-31.1,10.6-46.9c20.6-13.6,42.8-23.1,65.5-28.1
	C222.6,79.5,238.1,90,256,90s33.4-10.5,40.6-25.7c22.7,5,44.9,14.5,65.5,28.1c-5.6,15.9-2.1,34.2,10.6,46.9
	c12.5,12.5,30.9,16.2,46.9,10.6c13.6,20.6,23.1,42.8,28.1,65.5c-15.2,7.2-25.7,22.7-25.7,40.6s10.5,33.4,25.7,40.6
	c-5,22.7-14.5,44.9-28.1,65.5C403.7,356.5,385.3,360,372.7,372.7L372.7,372.7z M415.1,96.9c5.9,5.9,5.9,15.4,0,21.2
	c-5.8,5.8-15.4,5.8-21.2,0c-5.9-5.9-5.9-15.4,0-21.2C399.7,91.1,409.2,91.1,415.1,96.9z M256,30c8.3,0,15,6.7,15,15s-6.7,15-15,15
	s-15-6.7-15-15S247.7,30,256,30z M96.9,96.9c5.8-5.8,15.4-5.8,21.2,0c5.9,5.9,5.9,15.4,0,21.2c-5.8,5.8-15.4,5.8-21.2,0
	C91,112.3,91,102.8,96.9,96.9z M45,241c8.3,0,15,6.7,15,15s-6.7,15-15,15s-15-6.7-15-15S36.7,241,45,241z M96.9,415.1
	c-5.9-5.9-5.9-15.4,0-21.2c5.8-5.8,15.4-5.8,21.2,0c5.9,5.9,5.9,15.4,0,21.2C112.3,420.9,102.7,420.9,96.9,415.1z M256,482
	c-8.3,0-15-6.7-15-15s6.7-15,15-15s15,6.7,15,15S264.3,482,256,482z M415.1,415.1c-5.8,5.8-15.4,5.8-21.2,0
	c-5.9-5.9-5.9-15.4,0-21.2c5.8-5.8,15.4-5.8,21.2,0C421,399.7,421,409.2,415.1,415.1z M467,271c-8.3,0-15-6.7-15-15s6.7-15,15-15
	s15,6.7,15,15S475.3,271,467,271z"/>
</svg>
