<?xml version="1.0" encoding="utf-8"?>
<!-- Generator: Adobe Illustrator 24.3.0, SVG Export Plug-In . SVG Version: 6.00 Build 0)  -->
<svg version="1.1" id="Capa_1" xmlns="http://www.w3.org/2000/svg" xmlns:xlink="http://www.w3.org/1999/xlink" x="0px" y="0px"
	 viewBox="0 0 512 512" style="enable-background:new 0 0 512 512;" xml:space="preserve">
<style type="text/css">
	.st0{fill:#4F80FF;}
</style>
<g>
	<path class="st0" d="M426.4,110.3c-36.9-38.2-84.7-62.5-136.6-69.9l14.8-14.8c5.9-5.9,5.9-15.4,0-21.2c-5.9-5.9-15.4-5.9-21.2,0
		l-38,38c-5.9,5.9-5.9,15.4,0,21.2l38,38c2.9,2.9,6.8,4.4,10.6,4.4s7.7-1.5,10.6-4.4c5.9-5.9,5.9-15.4,0-21.2l-8.5-8.5
		c41.2,8.1,79,28.5,108.7,59.3C442.4,169.9,463,221,463,275c0,114.1-92.9,207-207,207S49,389.1,49,275c0-43.6,13.4-85.2,38.7-120.5
		c24.8-34.5,58.9-60.3,98.7-74.5c7.8-2.8,11.9-11.4,9.1-19.2c-2.8-7.8-11.4-11.9-19.2-9.1C130.7,68,91.6,97.5,63.3,137
		C34.3,177.4,19,225.1,19,275c0,63.3,24.7,122.8,69.4,167.6C133.2,487.3,192.7,512,256,512s122.8-24.7,167.6-69.4
		C468.4,397.8,493,338.3,493,275C493,213.2,469.4,154.7,426.4,110.3L426.4,110.3z"/>
	<path class="st0" d="M101.9,275c0,85,69.1,154.1,154.1,154.1c85,0,154.1-69.1,154.1-154.1S341,120.9,256,120.9
		C171,120.9,101.9,190,101.9,275L101.9,275z M265.2,288.3c-21.6-7.6-34.1-13.6-43.2-20.8c-11.2-8.8-16.3-23.9-13.3-39.5
		c3.2-16.9,15-30.4,30.8-35.1c0.2-0.1,0.4-0.1,0.7-0.2v-6c0-8.3,6.7-15,15-15c8.3,0,15,6.7,15,15v5.1c10.5,2.5,17.8,7.2,20.7,9.4
		c6.6,5,8,14.4,3,21c-5,6.6-14.4,8-21,3c-3.2-2.4-11.9-7.5-24.8-3.6c-7.6,2.3-9.5,9.7-10,12c-0.8,4.4,0.1,8.6,2.4,10.3
		c7.8,6.2,21.9,11.6,34.7,16.1c23.3,8.2,36.3,29.8,32.2,53.7c-2,11.7-7.9,22.6-16.6,30.6c-6,5.5-13,9.5-20.7,11.7v7.2
		c0,8.3-6.7,15-15,15c-8.3,0-15-6.7-15-15v-5.7c-10-1.2-18.3-4.2-29.5-11.6c-6.9-4.5-8.9-13.8-4.3-20.8c4.5-6.9,13.8-8.9,20.8-4.3
		c10.4,6.8,14.3,7.4,28,7.3c13.5-0.1,21.3-10.1,22.8-19.4C278.6,304.3,278.9,293.2,265.2,288.3L265.2,288.3z"/>
</g>
</svg>
