<svg viewBox="0 0 512 512" xmlns="http://www.w3.org/2000/svg"><path d="m432.7 399.5c43.7 0 79.3-35.6 79.3-79.3 0-79.1-64.4-143.5-143.5-143.5h-33.2v-49.3c0-8.3-6.7-15-15-15h-17.1v-34.2h193.8c8.3 0 15-6.7 15-15s-6.7-15-15-15h-417.7c-8.3 0-15 6.7-15 15s6.7 15 15 15h193.9v34.3h-17.2c-8.3 0-15 6.7-15 15v49.3h-146.7v-1.1c0-25.8-20.8-47.1-47.1-47.1h-32.2c-8.3 0-15 6.7-15 15v80.3c0 26 21.1 47.1 47.1 47.1h113.5v17.1c0 56.7 42.2 103.1 96.4 110.4v35.3h-81.4c-8.3 0-15 6.7-15 15s6.7 15 15 15h282.5c18.7 0 36.2-7.3 49.4-20.5 5.9-5.9 5.9-15.4 0-21.2s-15.4-5.9-21.2 0c-7.5 7.5-17.5 11.7-28.2 11.7h-74.7v-34.3zm48.3-94.2h-96.5c-27.2 0-49.3-22.1-49.3-49.3v-49.3h33.2c57.6 0 105.2 43 112.6 98.6zm-210-162.8h34.3v34.3h-34.3zm-80.3 145.6v-32.1c0-8.3-6.7-15-15-15h-128.6c-9.4 0-17.1-7.7-17.1-17.1v-65.3h17.1c9.5 0 17.1 7.7 17.1 17.1v16.1c0 8.3 6.7 15 15 15h226v49.2c0 43.7 35.6 79.3 79.3 79.3h95.1c-6.4 19.9-25 34.3-46.9 34.3h-160.6c-45-.1-81.4-36.4-81.4-81.5zm162.8 145.7h-66.4v-34.3h66.4z" fill="#fff"/></svg>