<?xml version="1.0" encoding="utf-8"?>
<!-- Generator: Adobe Illustrator 24.3.0, SVG Export Plug-In . SVG Version: 6.00 Build 0)  -->
<svg version="1.1" id="Capa_1" xmlns="http://www.w3.org/2000/svg" xmlns:xlink="http://www.w3.org/1999/xlink" x="0px" y="0px"
	 viewBox="0 0 512 512" style="enable-background:new 0 0 512 512;" xml:space="preserve">
<style type="text/css">
	.st0{fill:#FFFFFF;}
</style>
<g>
	<g>
		<path class="st0" d="M471,215c0-57.4-22.4-111.4-63-152S313.4,0,256,0S144.6,22.4,104,63s-63,94.6-63,152v5.8L222.3,422H181v90
			h150v-90h-41.3L471,220.8V215z M86.4,226.3c26.2-2.2,52.5-1.5,78.6,2.2L216,370.2L86.4,226.3z M301,452v30h-90v-30H301z
			 M256,392.8l-60.7-168.4c39.6-11.8,81.8-11.8,121.4,0L256,392.8z M296,370.2l51.1-141.7c26.1-3.7,52.4-4.4,78.6-2.2L296,370.2z
			 M337.5,199.6c-52.7-18.8-110.2-18.8-162.9,0c-34.1-5.3-68.5-6-102.7-1.9C80.6,103.7,159.8,30,256,30s175.4,73.7,184.2,167.6
			C406,193.6,371.6,194.3,337.5,199.6z"/>
	</g>
</g>
</svg>
